<svg xmlns="http://www.w3.org/2000/svg" xmlns:xlink="http://www.w3.org/1999/xlink" version="1.1" width="400" height="400" viewBox="0 0 400 400" xml:space="preserve"><g transform="matrix(7.5565000021 0 0 7.5565000021 200.2249718735 199.7750281265)" id="aYcCOfAGOB0j3k2qyyURi"  ><filter id="SVGID_369" y="-28.88999915%" height="157.7799983%" x="-28.88999915%" width="157.7799983%" ><feGaussianBlur in="SourceAlpha" stdDeviation="2"></feGaussianBlur><feOffset dx="0" dy="0" result="oBlur" ></feOffset><feFlood flood-color="rgb(124,124,124)" flood-opacity="1"/><feComposite in2="oBlur" operator="in" /><feMerge><feMergeNode></feMergeNode><feMergeNode in="SourceGraphic"></feMergeNode></feMerge></filter><path style="stroke: rgb(44,239,33); stroke-width: 0; stroke-dasharray: none; stroke-linecap: butt; stroke-dashoffset: 0; stroke-linejoin: miter; stroke-miterlimit: 4; fill: rgb(255,255,255); fill-rule: nonzero; opacity: 1;filter: url(#SVGID_369);" vector-effect="non-scaling-stroke"  transform=" translate(0, 0)" d="M 0 -22.49719 C 12.41845 -22.49719 22.49719 -12.41845 22.49719 0 C 22.49719 12.41845 12.41845 22.49719 0 22.49719 C -12.41845 22.49719 -22.49719 12.41845 -22.49719 0 C -22.49719 -12.41845 -12.41845 -22.49719 0 -22.49719 z" stroke-linecap="round" /></g><g transform="matrix(1.2200617226 0 0 1.2200617226 193.2107317819 195.0382655898)" id="eo2SpY_9uyV1yT8hM_-JC"  ><g style="" vector-effect="non-scaling-stroke"   ><g transform="matrix(0.485983887 -0.0856920715 0.0856920715 0.485983887 14.4381442448 -9.6858693078)" id="gIsqQmTdnX0_QsRIo8DCh"  ><path style="stroke: none; stroke-width: 1; stroke-dasharray: none; stroke-linecap: butt; stroke-dashoffset: 0; stroke-linejoin: miter; stroke-miterlimit: 4; fill: rgb(54,0,148); fill-rule: nonzero; opacity: 1;" vector-effect="non-scaling-stroke"  transform=" translate(-328.7063872501, -283.9073605476)" d="M 280.593 202.097 C 280.045 201.953 279.509 201.776 278.96700000000004 201.616 C 291.61600000000004 177.971 292.576 144.69500000000002 288.46700000000004 119.98600000000002 C 283.97700000000003 92.98900000000002 273.79 52.298000000000016 291.67400000000004 28.01300000000002 C 315.45700000000005 -4.283999999999978 363.93800000000005 14.00600000000002 366.73400000000004 52.289000000000016 C 368.44800000000004 75.77000000000001 356.28600000000006 91.58000000000001 345.413 110.34500000000001 C 331.49 134.376 306.737 170.28900000000002 309.672 201.548 C 300.476 204.291 290.664 204.754 280.593 202.097 z M 207.954 225.257 C 201.52200000000002 221.869 195.82500000000002 217.09 191.53 211.221 C 183.062 199.65 180.139 184.88400000000001 172.544 172.721 C 164.949 160.559 148.687 151.126 136.50400000000002 158.689 C 128.168 163.863 125.44400000000002 175.35 128.08700000000002 184.79899999999998 C 130.60000000000002 193.78199999999998 136.972 201.152 144.025 207.30999999999997 C 144.39100000000002 207.62899999999996 144.758 207.94499999999996 145.127 208.25799999999998 C 152.61 214.605 160.89800000000002 220.04 167.721 227.09199999999998 C 174.972 234.588 179.729 243.12599999999998 182.672 252.22699999999998 C 197.527 248.26 204.867 237.917 207.954 225.257 z M 186.294 337.866 C 184.687 335.012 182.799 332.167 180.68800000000002 329.382 C 177.282 345.84000000000003 171.02800000000002 361.39 154.848 369.151 C 145.84400000000002 373.469 135.64700000000002 374.336 125.84300000000002 376.22700000000003 C 112.82900000000002 378.73900000000003 95.22200000000002 382.922 93.24700000000001 398.63300000000004 C 92.14900000000002 407.36300000000006 97.19700000000002 416.52400000000006 105.16400000000002 420.259 C 115.95300000000002 425.317 128.871 420.396 138.479 413.348 C 149.211 405.47700000000003 158.65 393.659 171.936 390.47700000000003 C 179.214 388.73400000000004 187.513 389.10400000000004 195.51000000000002 390.74300000000005 C 197.521 371.744 194.331 352.139 186.294 337.866 z M 563.762 344.443 C 561.3779999999999 335.03 551.731 328.79699999999997 542.0759999999999 327.757 C 532.4209999999998 326.71700000000004 522.8139999999999 329.897 513.93 333.814 C 505.0439999999999 337.731 496.424 342.46000000000004 487.00399999999996 344.815 C 472.39799999999997 348.466 449.347 346.241 438.46799999999996 334.298 C 434.17499999999995 329.585 431.36699999999996 322.868 429.116 315.881 C 421.09299999999996 323.239 415.258 332.472 413.51599999999996 343.594 C 410.48199999999997 362.976 412.08 381.892 426.41599999999994 391.21299999999997 C 438.38999999999993 377.02299999999997 454.26499999999993 366.88599999999997 469.54299999999995 366.86699999999996 C 486.7579999999999 366.84599999999995 503.45099999999996 372.51899999999995 520.564 374.39699999999993 C 530.833 375.5249999999999 541.726 375.15399999999994 550.761 370.14699999999993 C 559.798 365.141 566.298 354.458 563.762 344.443 z M 334.052 436.513 C 328.68600000000004 444.746 325.531 454.046 324.31 463.63899999999995 C 343.32 456.799 366.557 459.465 382.711 471.34399999999994 C 401.93600000000004 485.4789999999999 399.60200000000003 506.93999999999994 407.041 527.51 C 428.589 587.088 505.102 543.174 470.23699999999997 498.572 C 459.94699999999995 485.407 442.71299999999997 480.386 427.758 472.931 C 404.71799999999996 461.43899999999996 402.748 437.77799999999996 411.573 415.71299999999997 C 408.616 413.95799999999997 405.30699999999996 412.506 401.51399999999995 411.45599999999996 C 377.252 404.74 347.712 415.556 334.052 436.513 z" stroke-linecap="round" /></g><g transform="matrix(0.485983887 -0.0856920715 0.0856920715 0.485983887 5.3747933988 19.1412444697)" id="_4RjJwe8kq3dW4ZHoSs0g"  ><path style="stroke: none; stroke-width: 1; stroke-dasharray: none; stroke-linecap: butt; stroke-dashoffset: 0; stroke-linejoin: miter; stroke-miterlimit: 4; fill: rgb(252,134,29); fill-rule: nonzero; opacity: 1;" vector-effect="non-scaling-stroke"  transform=" translate(-300.4754426901, -338.246498872)" d="M 393.621 232.083 C 414.56899999999996 221.202 432.991 203.677 440.47799999999995 187.265 C 445.21899999999994 176.87099999999998 451.33299999999997 156.714 463.89899999999994 153.01899999999998 C 479.13499999999993 148.53799999999998 492.91499999999996 165.71099999999998 490.36299999999994 179.7 C 487.95899999999995 192.87599999999998 474.9769999999999 201.083 462.91599999999994 206.90599999999998 C 440.73099999999994 217.617 424.6909999999999 238.47199999999998 420.63399999999996 262.21099999999996 C 408.788 255.923 399.454 244.979 393.621 232.083 z M 159.551 147.481 C 167.161 148.581 173.101 142.92 171.884 135.728 C 170.75099999999998 129.029 163.67899999999997 122.10600000000001 156.551 120.71700000000001 C 148.898 119.22500000000001 142.529 124.46700000000001 143.32799999999997 131.59900000000002 C 144.128 138.73 151.942 146.381 159.551 147.481 z M 527.234 500.038 C 513.426 502.273 507.36100000000005 522.155 523.565 525.625 C 528.4250000000001 526.666 533.2030000000001 525.78 536.7120000000001 523.494 C 541.4250000000001 520.4250000000001 543.8540000000002 514.8330000000001 541.1340000000001 507.992 C 539.004 502.633 532.93 499.115 527.234 500.038 z M 104.374 365.068 C 110.76599999999999 362.66999999999996 116.24499999999999 356.96299999999997 116.78 350.156 C 117.309 343.427 112.95100000000001 337.04 107.284 333.373 C 101.616 329.707 94.81400000000001 328.287 88.146 327.234 C 78.608 325.72999999999996 67.072 325.61899999999997 61.388000000000005 333.42499999999995 C 56.763000000000005 339.77699999999993 58.437000000000005 349.20399999999995 63.571000000000005 355.15399999999994 C 68.70500000000001 361.1019999999999 76.477 364.1189999999999 84.17500000000001 365.68999999999994 C 90.863 367.057 97.982 367.467 104.374 365.068 z M 257.792 434.986 C 254.93599999999998 434.57599999999996 252.09099999999998 434.425 249.27999999999997 434.51099999999997 C 254.10999999999999 443.52 258.34 453.03799999999995 263.01399999999995 462.23499999999996 C 275.42099999999994 486.63899999999995 274.775 519.367 259.87199999999996 542.7819999999999 C 254.16299999999995 551.752 247.10499999999996 560.1039999999999 243.79499999999996 570.2099999999999 C 234.12299999999996 599.7409999999999 272.74499999999995 611.8419999999999 285.03099999999995 585.3729999999999 C 293.8179999999999 566.4449999999999 281.21399999999994 543.4599999999999 283.09399999999994 524.097 C 284.84099999999995 506.101 291.39099999999996 488.61199999999997 304.39699999999993 476.08299999999997 C 296.725 454.841 281.447 438.378 257.792 434.986 z M 214.896 529.713 C 209.094 531.12 203.64399999999998 535.809 200.855 543.0369999999999 C 198.09 550.2059999999999 198.24599999999998 559.0169999999999 203.243 564.8549999999999 C 209.172 571.781 220.84 572.1519999999999 227.889 566.3709999999999 C 234.93200000000002 560.5939999999998 237.077 550.0059999999999 233.866 541.4809999999999 C 230.058 531.371 222.199 527.943 214.896 529.713 z M 484.163 124.881 C 493.954 120.339 500.235 109.74 493.553 92.932 C 483.808 68.419 459.544 73.293 450.903 94.563 C 439.594 122.396 467.166 132.766 484.163 124.881 z" stroke-linecap="round" /></g><g transform="matrix(0.485983887 -0.0856920715 0.0856920715 0.485983887 -0.8195572402 -1.6905100848)" id="eC8Qpqh13H4hypenFo2nn"  ><path style="stroke: none; stroke-width: 1; stroke-dasharray: none; stroke-linecap: butt; stroke-dashoffset: 0; stroke-linejoin: miter; stroke-miterlimit: 4; fill: rgb(0,148,0); fill-rule: nonzero; opacity: 1;" vector-effect="non-scaling-stroke"  transform=" translate(-295.4441477466, -294.4942321621)" d="M 551.581 244.774 C 545.432 235.333 532.79 231.797 521.657 233.53300000000002 C 510.5240000000001 235.26900000000003 500.58000000000004 241.323 491.26900000000006 247.669 C 481.95900000000006 254.01600000000002 472.77200000000005 260.87600000000003 462.14000000000004 264.606 C 446.49800000000005 270.094 432.34100000000007 268.425 420.63300000000004 262.21 C 408.78700000000003 255.92199999999997 399.45300000000003 244.97799999999998 393.62000000000006 232.082 C 384.74000000000007 212.453 383.97800000000007 188.301 394.86800000000005 169.14999999999998 C 405.11300000000006 151.13199999999998 426.69800000000004 135.61899999999997 428.88000000000005 114.18299999999998 C 430.10200000000003 102.17799999999998 424.17300000000006 88.78999999999998 412.84100000000007 84.64599999999999 C 400.1050000000001 79.98699999999998 385.74000000000007 88.51899999999999 378.5400000000001 100.01099999999998 C 371.3400000000001 111.50299999999997 369.25700000000006 125.33899999999998 365.83600000000007 138.462 C 358.9150000000001 165.015 337.0300000000001 193.384 309.6690000000001 201.546 C 300.4750000000001 204.289 290.6630000000001 204.753 280.5920000000001 202.096 C 280.0440000000001 201.952 279.5080000000001 201.775 278.9660000000001 201.615 C 262.2470000000001 196.65800000000002 248.22700000000012 184.072 240.02300000000014 168.656 C 214.52900000000014 120.755 259.1030000000001 72.001 237.40800000000013 25.540999999999997 C 221.16700000000014 -9.239000000000004 169.3510000000001 -9.073 158.62300000000013 29.574999999999996 C 150.55600000000013 58.637 174.56100000000012 93.035 188.36700000000013 116.66499999999999 C 199.45100000000014 135.636 203.83400000000015 161.103 207.51500000000013 182.944 C 209.80000000000013 196.499 211.15700000000012 212.117 207.95400000000012 225.257 C 204.86700000000013 237.917 197.52700000000013 248.26 182.6710000000001 252.228 C 180.9380000000001 252.691 179.1230000000001 253.084 177.18000000000012 253.36700000000002 C 140.59300000000013 258.69 112.53400000000012 217.47500000000002 75.14400000000012 222.144 C 57.81200000000012 224.308 42.371000000000116 237.52100000000002 37.55200000000012 254.309 C 29.69900000000012 281.665 47.75300000000012 291.834 70.41600000000011 295.506 C 90.38300000000011 298.73999999999995 113.92900000000012 296.93199999999996 126.49100000000011 297.39099999999996 C 146.99700000000013 298.14 168.0120000000001 312.66099999999994 180.6880000000001 329.38199999999995 C 182.7990000000001 332.167 184.6870000000001 335.01199999999994 186.2940000000001 337.86599999999993 C 194.3310000000001 352.1379999999999 197.5210000000001 371.7439999999999 195.5090000000001 390.7419999999999 C 193.1690000000001 412.8539999999999 183.7770000000001 434.1419999999999 166.7130000000001 445.2289999999999 C 155.2770000000001 452.65899999999993 143.88200000000012 453.7699999999999 137.6420000000001 466.98799999999994 C 123.14800000000011 497.68299999999994 152.1040000000001 531.949 182.4200000000001 508.3059999999999 C 199.67300000000012 494.85099999999994 195.78600000000012 472.0009999999999 208.9450000000001 455.4289999999999 C 218.8620000000001 442.9409999999999 233.5490000000001 434.98799999999994 249.28000000000011 434.5109999999999 C 252.09100000000012 434.4249999999999 254.93500000000012 434.57499999999993 257.79200000000014 434.98599999999993 C 281.4470000000001 438.37799999999993 296.72500000000014 454.8399999999999 304.39800000000014 476.0829999999999 C 305.0770000000001 477.9629999999999 305.70300000000015 479.8759999999999 306.2620000000001 481.8239999999999 C 309.5460000000001 493.2479999999999 310.89300000000014 505.1849999999999 311.4350000000001 517.0279999999999 C 312.1380000000001 532.4039999999999 307.2670000000001 547.209 310.7620000000001 562.526 C 316.0740000000001 585.8059999999999 339.4180000000001 600.14 356.8850000000001 577.8739999999999 C 361.7890000000001 571.6209999999999 363.6330000000001 563.0769999999999 361.74200000000013 555.3589999999999 C 356.88800000000015 535.545 335.6180000000001 519.9909999999999 328.4660000000001 500.0329999999999 C 324.3270000000001 488.4849999999999 322.7570000000001 475.82499999999993 324.30900000000014 463.6379999999999 C 325.5310000000001 454.0449999999999 328.6850000000001 444.7449999999999 334.05100000000016 436.51199999999994 C 347.7110000000002 415.55499999999995 377.25100000000015 404.73999999999995 401.51500000000016 411.45599999999996 C 405.30800000000016 412.506 408.61700000000013 413.95799999999997 411.5740000000002 415.71299999999997 C 426.54600000000016 424.60099999999994 432.32500000000016 441.44199999999995 444.2460000000002 455.282 C 485.59100000000024 503.287 541.4590000000002 435.012 493.0010000000002 405.743 C 478.6980000000002 397.104 460.8070000000002 398.548 444.1780000000002 396.904 C 436.7940000000002 396.175 430.9690000000002 394.173 426.4170000000002 391.213 C 412.0810000000002 381.892 410.4820000000002 362.976 413.5170000000002 343.59400000000005 C 415.2580000000002 332.47200000000004 421.09300000000025 323.24000000000007 429.11700000000025 315.88100000000003 C 440.4640000000002 305.475 456.19600000000025 298.822 470.97900000000027 295.923 C 496.03700000000026 291.009 521.7130000000003 300.796 543.4420000000002 282.171 C 554.023 273.102 559.188 256.451 551.581 244.774 z" stroke-linecap="round" /></g></g></g></svg>